<?xml version="1.0" encoding="UTF-8" standalone="no"?>
<!-- Generator: Adobe Illustrator 22.1.0, SVG Export Plug-In . SVG Version: 6.00 Build 0)  -->
<svg xmlns:dc="http://purl.org/dc/elements/1.1/" xmlns:cc="http://creativecommons.org/ns#" xmlns:rdf="http://www.w3.org/1999/02/22-rdf-syntax-ns#" xmlns:svg="http://www.w3.org/2000/svg" xmlns="http://www.w3.org/2000/svg" xmlns:sodipodi="http://sodipodi.sourceforge.net/DTD/sodipodi-0.dtd" xmlns:inkscape="http://www.inkscape.org/namespaces/inkscape" version="1.1" id="Layer_1" x="0px" y="0px" viewBox="0 0 2385.7 1919.9" style="enable-background:new 0 0 2385.7 1919.9;" xml:space="preserve" sodipodi:docname="github-1s.svg" inkscape:version="0.92.4 (5da689c313, 2019-01-14)"><metadata id="metadata985"><rdf:RDF><cc:Work rdf:about=""><dc:format>image/svg+xml</dc:format><dc:type rdf:resource="http://purl.org/dc/dcmitype/StillImage"/><dc:title/></cc:Work></rdf:RDF></metadata><defs id="defs983"/><sodipodi:namedview pagecolor="#ffffff" bordercolor="#666666" borderopacity="1" objecttolerance="10" gridtolerance="10" guidetolerance="10" inkscape:pageopacity="0" inkscape:pageshadow="2" inkscape:window-width="1920" inkscape:window-height="1016" id="namedview981" showgrid="false" inkscape:zoom="0.10885984" inkscape:cx="-1505.6616" inkscape:cy="-400.51239" inkscape:window-x="0" inkscape:window-y="27" inkscape:window-maximized="1" inkscape:current-layer="Layer_1"/>
<style type="text/css" id="style968">
	.st0{fill:#EA4335;}
	.st1{fill:#4285F4;}
	.st2{fill:#34A853;}
	.st3{fill:#FBBC05;}
</style>

<path inkscape:connector-curvature="0" d="m 1192.85,0.01301221 c -538.46383,0 -974.57643,436.11256779 -974.57643,974.57639779 0,458.00939 314.2698,838.13569 738.2727,945.29759 -4.8936,-12.1926 -7.2989,-29.2788 -7.2989,-46.282 v -165.7195 h -121.8428 c -65.7736,0 -126.7364,-29.1958 -153.5269,-82.8597 -31.6841,-58.4746 -36.5777,-148.6333 -116.9492,-204.7025 -24.3851,-19.4915 -4.8936,-38.9831 21.8969,-36.5777 51.1756,14.5979 92.564,48.7703 131.5471,99.8629 38.983,51.1757 56.0692,63.3682 129.1417,63.3682 34.0894,0 87.6704,-2.4053 136.4407,-9.7872 26.79053,-68.2618 73.07253,-129.1417 129.14173,-158.3375 -326.46233,-38.9831 -482.39453,-199.8089 -482.39453,-419.10939 0,-95.0523 41.3884,-185.2109 109.6502,-263.177 -21.8969,-75.5608 -51.1756,-231.49304 9.7872,-292.37296 146.2279,0 233.8983,95.0523 255.7952,119.35451 73.07253,-24.38515 153.52693,-38.98306 236.30373,-38.98306 85.2651,0 163.2312,14.59791 236.3037,38.98306 21.8968,-24.38515 109.6502,-119.35451 255.7952,-119.35451 58.4745,58.47459 31.6841,216.81216 7.2989,292.37296 68.2618,75.5607 107.2449,168.1247 107.2449,263.177 0,219.30049 -153.5269,380.12629 -477.501,414.21569 90.1587,46.282 153.5269,177.8291 153.5269,275.2868 v 221.9546 c 0,7.2989 -2.4053,14.5979 -2.4053,21.8968 380.0433,-131.5471 652.9247,-492.0989 652.9247,-918.50709 0,-538.46383 -436.1126,-974.57639779 -974.5764,-974.57639779 z" id="path1053" style="stroke-width:0.82942671"/></svg>