<?xml version="1.0" encoding="UTF-8" standalone="no"?>
<svg
   xmlns:dc="http://purl.org/dc/elements/1.1/"
   xmlns:cc="http://creativecommons.org/ns#"
   xmlns:rdf="http://www.w3.org/1999/02/22-rdf-syntax-ns#"
   xmlns:svg="http://www.w3.org/2000/svg"
   xmlns="http://www.w3.org/2000/svg"
   xmlns:sodipodi="http://sodipodi.sourceforge.net/DTD/sodipodi-0.dtd"
   xmlns:inkscape="http://www.inkscape.org/namespaces/inkscape"
   height="254"
   preserveAspectRatio="xMidYMid"
   viewBox="-10.858 -38.496903 33.32978 37.449522"
   width="226.058"
   version="1.1"
   id="svg949"
   sodipodi:docname="graphql-logo.svg"
   inkscape:version="0.92.5 (2060ec1f9f, 2020-04-08)">
  <metadata
     id="metadata955">
    <rdf:RDF>
      <cc:Work
         rdf:about="">
        <dc:format>image/svg+xml</dc:format>
        <dc:type
           rdf:resource="http://purl.org/dc/dcmitype/StillImage" />
        <dc:title></dc:title>
      </cc:Work>
    </rdf:RDF>
  </metadata>
  <defs
     id="defs953" />
  <sodipodi:namedview
     pagecolor="#ffffff"
     bordercolor="#666666"
     borderopacity="1"
     objecttolerance="10"
     gridtolerance="10"
     guidetolerance="10"
     inkscape:pageopacity="0"
     inkscape:pageshadow="2"
     inkscape:window-width="1920"
     inkscape:window-height="1016"
     id="namedview951"
     showgrid="false"
     inkscape:document-units="px"
     units="px"
     inkscape:zoom="0.84251969"
     inkscape:cx="259.17465"
     inkscape:cy="98.120174"
     inkscape:window-x="0"
     inkscape:window-y="27"
     inkscape:window-maximized="1"
     inkscape:current-layer="svg949" />
  <path
     id="path1352"
     d="m 9.0065418,-34.205315 7.7004462,4.446121 a 3.3614789,3.3614789 0 0 1 0.757476,-0.59941 c 1.596955,-0.918131 3.633966,-0.373013 4.561602,1.224081 0.91813,1.597095 0.373003,3.633976 -1.224082,4.561612 a 3.3457253,3.3457253 0 0 1 -0.889357,0.354122 v 8.895507 a 3.3459857,3.3459857 0 0 1 0.879852,0.35178 c 1.60659,0.927635 2.151717,2.964646 1.224082,4.56174 -0.918131,1.5969562 -2.964647,2.1420839 -4.561731,1.2240822 a 3.3152599,3.3152599 0 0 1 -0.825431,-0.6701036 l -7.6535852,4.4187865 a 3.3422101,3.3422101 0 0 1 0.1686024,1.0519668 c 0,1.8361223 -1.4917639,3.3376493 -3.3375303,3.3376493 -1.8457565,0 -3.3375203,-1.4920218 -3.3375203,-3.3376493 0,-0.3280966 0.047129,-0.6449814 0.1350169,-0.9443046 l -7.698373,-4.4448214 a 3.3621298,3.3621298 0 0 1 -0.7470576,0.5884763 c -1.6065897,0.9180017 -3.6436107,0.372874 -4.5617309,-1.2240822 -0.918002,-1.597094 -0.372884,-3.634105 1.2240812,-4.56174 a 3.3472877,3.3472877 0 0 1 0.879852,-0.351909 v -8.895378 a 3.3457253,3.3457253 0 0 1 -0.889357,-0.354122 c -1.5970942,-0.918001 -2.1422122,-2.964517 -1.2240812,-4.561612 0.9181202,-1.597094 2.9645172,-2.142212 4.5616017,-1.224081 a 3.361609,3.361609 0 0 1 0.7538244,0.59563 l 7.7026691,-4.447292 a 3.3468971,3.3468971 0 0 1 -0.1364456,-0.949117 c 0,-1.845498 1.4917638,-3.33752 3.3375203,-3.33752 1.8457664,0 3.3375303,1.491893 3.3375303,3.33752 0,0.331738 -0.04822,0.651887 -0.1378744,0.954068 z m -0.802263,1.369893 7.7188122,4.456549 a 3.3328361,3.3328361 0 0 0 0.317281,2.581871 c 0.469871,0.817364 1.235284,1.359227 2.084805,1.570404 v 8.90657 c -0.04336,0.01052 -0.08642,0.02213 -0.129282,0.03433 L 8.1145752,-32.746274 c 0.03046,-0.02917 0.060424,-0.05884 0.089694,-0.0891 z m -4.7029985,0.09118 -10.0811807,17.460318 a 3.3621298,3.3621298 0 0 0 -0.1314946,-0.03512 v -8.907482 c 0.8495209,-0.211177 1.6149241,-0.753041 2.0847943,-1.570405 a 3.3329663,3.3329663 0 0 0 0.315982,-2.586821 l 7.7165994,-4.45524 c 0.031155,0.03215 0.062905,0.0638 0.09525,0.09466 z m 3.2381924,0.790923 10.0788393,17.456418 a 3.3189054,3.3189054 0 0 0 -0.587574,0.749528 3.3459857,3.3459857 0 0 0 -0.35178,0.879842 H -4.2649186 a 3.3472877,3.3472877 0 0 0 -0.352048,-0.879842 3.3622599,3.3622599 0 0 0 -0.5866507,-0.745232 L 4.8771765,-31.952534 a 3.3479386,3.3479386 0 0 0 0.9297094,0.130721 c 0.3238004,0 0.636657,-0.04584 0.9325868,-0.131504 z m 1.5356384,25.3198729 7.6686869,-4.4276369 a 3.3674677,3.3674677 0 0 1 -0.06161,-0.218986 H -4.2692445 c -0.010716,0.04336 -0.022225,0.08632 -0.034627,0.129153 L 3.40231,-6.7015399 a 3.3274982,3.3274982 0 0 1 2.4045466,-1.0209808 3.3282794,3.3282794 0 0 1 2.4682251,1.0890746 z"
     inkscape:connector-curvature="0"
     style="fill:#e535ab;fill-rule:evenodd;stroke-width:0.13019399" />
</svg>
