<?xml version="1.0" encoding="UTF-8" standalone="no"?>
<!-- Generator: Adobe Illustrator 16.0.0, SVG Export Plug-In . SVG Version: 6.00 Build 0)  -->
<svg xmlns:dc="http://purl.org/dc/elements/1.1/" xmlns:cc="http://creativecommons.org/ns#" xmlns:rdf="http://www.w3.org/1999/02/22-rdf-syntax-ns#" xmlns:svg="http://www.w3.org/2000/svg" xmlns="http://www.w3.org/2000/svg" xmlns:sodipodi="http://sodipodi.sourceforge.net/DTD/sodipodi-0.dtd" xmlns:inkscape="http://www.inkscape.org/namespaces/inkscape" version="1.2" id="Layer_1" x="0px" y="0px" width="1157" height="300" viewBox="0 0 1157 300" xml:space="preserve" sodipodi:docname="Semrush-logo-fire.svg" inkscape:version="0.92.4 (5da689c313, 2019-01-14)"><metadata id="metadata970"><rdf:RDF><cc:Work rdf:about=""><dc:format>image/svg+xml</dc:format><dc:type rdf:resource="http://purl.org/dc/dcmitype/StillImage"/><dc:title/></cc:Work></rdf:RDF></metadata><defs id="defs968">
	
	
</defs><sodipodi:namedview pagecolor="#ffffff" bordercolor="#666666" borderopacity="1" objecttolerance="10" gridtolerance="10" guidetolerance="10" inkscape:pageopacity="0" inkscape:pageshadow="2" inkscape:window-width="1920" inkscape:window-height="1016" id="namedview966" showgrid="false" inkscape:zoom="0.3125413" inkscape:cx="1702.7185" inkscape:cy="-472.58151" inkscape:window-x="0" inkscape:window-y="27" inkscape:window-maximized="1" inkscape:current-layer="Layer_1"/>
<g id="g961" transform="translate(-5e-4,-1350.0014)">
		<path style="fill:#ba4818" inkscape:connector-curvature="0" id="path957" d="m 1112.4,1395.268 c -37.2,-38.399 -87.601,-51.6 -152.4,-39.6 0,0 -76.8,18 -146.4,19.2 -28.8,0 -54,-8.4 -74.399,-13.2 10.8,18 28.8,30 48,37.2 18,6 43.2,16.8 32.399,34.8 -12,19.2 -32.399,2.4 -37.199,-1.2 -18,-13.2 -26.4,-24 -60,-43.2 -36,-21.6 -87.601,-21.6 -138,-16.8 0,0 42,8.4 60,27.601 0,0 -80.4,-16.801 -133.2,8.399 76.8,2.4 160.8,14.4 175.2,21.601 14.399,7.199 7.199,10.8 -6,14.399 -33.601,7.2 -97.2,9.601 -135.601,-1.2 -55.2,-15.6 -103.2,-62.399 -183.6,-50.399 70.8,14.399 109.2,81.6 186,97.2 76.8,15.6 129.6,-14.4 147.6,-19.2 16.8,-3.601 32.4,1.2 37.2,13.2 4.8,12 -10.8,26.399 -32.4,31.199 -15.6,2.4 -20.399,2.4 -49.199,6 -58.801,6 -102,-1.199 -139.2,-10.8 -72,-19.2 -122.4,-66 -146.4,-79.2 -24,-13.199 -54,-18 -74.4,-20.399 0,0 38.4,20.399 54,45.6 -34.801,-13.2 -86.4,-21.6 -154.8,-8.399 -36,6 -104.4,22.8 -189.6,56.399 42,12 96,2.4 120,1.2 127.2,-9.6 169.2,16.8 208.8,31.2 123.601,45.6 166.8,6 175.2,19.2 6,9.6 -33.6,25.199 -44.4,27.6 -55.199,9.6 -82.8,0 -134.399,-12 25.2,25.2 74.399,43.2 129.6,42 56.4,-2.4 116.4,-10.8 163.2,-31.2 55.2,-22.8 79.2,-31.2 104.4,-38.399 10.8,-2.4 49.199,-13.2 57.6,-2.4 4.8,6 -2.4,10.8 -14.4,15.6 -9.6,3.601 -21.6,8.4 -33.6,12 -27.6,10.801 -78,28.801 -94.8,43.2 0,0 72,-10.8 142.8,-10.8 69.6,0 118.8,14.4 171.6,34.8 56.4,21.601 106.801,14.4 150,-21.6 38.4,-31.2 56.4,-69.601 55.2,-112.8 0,-42.002 -15.602,-76.802 -44.402,-106.802 z m -99.6,225.6 c -66,0 -120,-54 -120,-120 0,-66 54,-120 120,-120 66,0 120,54 120,120 0,66 -54,120 -120,120 z"/>
		<path style="fill:#ba4818" inkscape:connector-curvature="0" id="path959" d="m 1012.8,1406.068 c -51.6,0 -94.8,42 -94.8,94.8 0,52.8 42,94.8 94.8,94.8 52.8,0 94.8,-42 94.8,-94.8 0,-52.8 -42,-94.8 -94.8,-94.8 z m 44.4,157.2 c 10.8,-13.199 16.8,-30 16.8,-49.199 0,-38.4 -27.6,-70.801 -63.6,-78 3.6,-4.801 7.199,-8.4 10.8,-13.2 37.2,6 66,38.399 66,78 0,25.199 -12,47.999 -30,62.399 z"/>
	</g>
</svg>