<?xml version="1.0" encoding="iso-8859-1"?>
<!-- Generator: Adobe Illustrator 19.0.0, SVG Export Plug-In . SVG Version: 6.00 Build 0)  -->
<svg version="1.1" id="Capa_1" xmlns="http://www.w3.org/2000/svg" xmlns:xlink="http://www.w3.org/1999/xlink" x="0px" y="0px"
	 viewBox="0 0 464 464" style="enable-background:new 0 0 464 464;" xml:space="preserve">
<path style="fill:#168DE2;" d="M24,36.01c4.664,0.002,9.225,1.371,13.12,3.936c8.894-12.651,26.359-15.696,39.009-6.803
	c4.272,3.003,7.619,7.141,9.663,11.947c10.45-3.578,21.822,1.994,25.4,12.444s-1.994,21.822-12.444,25.4
	c-2.171,0.743-4.454,1.107-6.748,1.076H24c-13.255,0-24-10.745-24-24S10.745,36.01,24,36.01z"/>
<path style="fill:#5B5B5B;" d="M96,212.01h272v152H96V212.01z"/>
<path style="fill:#168DE2;" d="M336,244.01v88H128v-88H336z"/>
<path style="fill:#B5B5B5;" d="M392,460.01H72l24-96h272L392,460.01z"/>
<g>
	<path style="fill:#5B5B5B;" d="M120,388.01h24v16h-24V388.01z"/>
	<path style="fill:#5B5B5B;" d="M160,388.01h24v16h-24V388.01z"/>
	<path style="fill:#5B5B5B;" d="M200,388.01h24v16h-24V388.01z"/>
	<path style="fill:#5B5B5B;" d="M240,388.01h24v16h-24V388.01z"/>
	<path style="fill:#5B5B5B;" d="M280,388.01h24v16h-24V388.01z"/>
	<path style="fill:#5B5B5B;" d="M320,388.01h24v16h-24V388.01z"/>
	<path style="fill:#5B5B5B;" d="M120,420.01h24v16h-24V420.01z"/>
	<path style="fill:#5B5B5B;" d="M160,420.01h24v16h-24V420.01z"/>
	<path style="fill:#5B5B5B;" d="M200,420.01h24v16h-24V420.01z"/>
	<path style="fill:#5B5B5B;" d="M240,420.01h24v16h-24V420.01z"/>
	<path style="fill:#5B5B5B;" d="M280,420.01h24v16h-24V420.01z"/>
	<path style="fill:#5B5B5B;" d="M320,420.01h24v16h-24V420.01z"/>
</g>
<path style="fill:#B5B5B5;" d="M184,77.474v32c29.065,19.383,66.935,19.383,96,0v-32C250.935,96.857,213.065,96.857,184,77.474z"/>
<path style="fill:#5B5B5B;" d="M184,18.57c29.048-19.44,66.952-19.44,96,0c-14.214,9.48-30.914,14.546-48,14.56
	C214.914,33.116,198.214,28.05,184,18.57z"/>
<g>
	<path style="fill:#B5B5B5;" d="M280,18.57v32c-14.214,9.48-30.914,14.546-48,14.56c-17.086-0.014-33.786-5.08-48-14.56v-32
		c14.214,9.48,30.914,14.546,48,14.56C249.086,33.116,265.786,28.05,280,18.57z"/>
	<path style="fill:#B5B5B5;" d="M336,28.01h128v64H336V28.01z"/>
</g>
<path style="fill:#D95354;" d="M424,52.01h16v16h-16V52.01z"/>
<path style="fill:#5B5B5B;" d="M360,52.01h48v16h-48V52.01z"/>
<path style="fill:none;stroke:#000000;stroke-width:2;stroke-linejoin:round;" d="M232,180.01v32"/>
<g>
	<path style="fill:#5B5B5B;" d="M232,140.01c-13.255,0-24,10.745-24,24s10.745,24,24,24c13.255,0,24-10.745,24-24
		S245.255,140.01,232,140.01z M232,172.01c-4.418,0-8-3.582-8-8s3.582-8,8-8s8,3.582,8,8S236.418,172.01,232,172.01z"/>
	<path style="fill:#5B5B5B;" d="M432,132.01c0.055-13.255-10.646-24.044-23.9-24.099c-13.255-0.055-24.044,10.646-24.099,23.9
		c-0.042,10.207,6.376,19.324,16,22.727V260.01h-32v16h40c4.418,0,8-3.582,8-8V154.538C425.555,151.16,431.958,142.144,432,132.01z
		 M408,140.01c-4.418,0-8-3.582-8-8c0-4.418,3.582-8,8-8s8,3.582,8,8C416,136.428,412.418,140.01,408,140.01z"/>
	<path style="fill:#5B5B5B;" d="M64,146.538c12.497-4.418,19.046-18.131,14.627-30.627C74.209,103.414,60.497,96.865,48,101.283
		c-12.497,4.418-19.046,18.131-14.627,30.627c2.416,6.835,7.793,12.211,14.627,14.627V268.01c0,4.418,3.582,8,8,8h40v-16H64V146.538
		z M56,116.01c4.418,0,8,3.582,8,8c0,4.418-3.582,8-8,8s-8-3.582-8-8C48,119.592,51.582,116.01,56,116.01z"/>
</g>
<g>
</g>
<g>
</g>
<g>
</g>
<g>
</g>
<g>
</g>
<g>
</g>
<g>
</g>
<g>
</g>
<g>
</g>
<g>
</g>
<g>
</g>
<g>
</g>
<g>
</g>
<g>
</g>
<g>
</g>
</svg>
