<?xml version="1.0"?>
<svg xmlns="http://www.w3.org/2000/svg" viewBox="0 0 64 64" width="512" height="512"><g id="Network"><path d="M57,26a6,6,0,0,0-5.912,5.018c-.031,0-.057-.018-.088-.018H49c-.018,0-.033.009-.05.01a16.906,16.906,0,0,0-4.265-10.288c.007-.007.016-.008.022-.015l4-4a.97.97,0,0,0,.206-.311A3.962,3.962,0,0,0,51,17a4,4,0,1,0-4-4,3.962,3.962,0,0,0,.6,2.087.97.97,0,0,0-.311.206l-4,4c-.007.006-.008.015-.015.022A16.906,16.906,0,0,0,32.99,15.05c0-.017.01-.032.01-.05V11a.826.826,0,0,0-.02-.1,5,5,0,1,0-1.96,0A.826.826,0,0,0,31,11v4c0,.018.009.033.01.05a16.906,16.906,0,0,0-10.288,4.265c-.007-.007-.008-.016-.015-.022l-9-9a.97.97,0,0,0-.311-.206A3.962,3.962,0,0,0,12,8a4,4,0,1,0-4,4,3.962,3.962,0,0,0,2.087-.6.97.97,0,0,0,.206.311l9,9c.006.007.015.008.022.015A16.906,16.906,0,0,0,15.05,31.01c-.017,0-.032-.01-.05-.01H13c-.031,0-.057.015-.088.018a6,6,0,1,0,0,1.964c.031,0,.057.018.088.018h2c.018,0,.033-.009.05-.01a16.9,16.9,0,0,0,4.209,10.226.929.929,0,0,0,.173.192A16.942,16.942,0,0,0,31.01,48.95c0,.017-.01.032-.01.05v4a.826.826,0,0,0,.02.1,5,5,0,1,0,1.96,0A.826.826,0,0,0,33,53V49c0-.018-.009-.033-.01-.05a16.906,16.906,0,0,0,10.288-4.265c.007.007.008.016.015.022l4,4a.97.97,0,0,0,.311.206A3.962,3.962,0,0,0,47,51a4,4,0,1,0,4-4,3.962,3.962,0,0,0-2.087.6.97.97,0,0,0-.206-.311l-4-4,0,0c.017-.022.023-.05.038-.074A16.9,16.9,0,0,0,48.95,32.99c.017,0,.032.01.05.01h2c.031,0,.057-.015.088-.018A6,6,0,1,0,57,26ZM51,11a2,2,0,1,1-2,2A2,2,0,0,1,51,11ZM8,10a2,2,0,1,1,2-2A2,2,0,0,1,8,10ZM7,36a4,4,0,1,1,4-4A4,4,0,0,1,7,36ZM51,49a2,2,0,1,1-2,2A2,2,0,0,1,51,49ZM29,6a3,3,0,1,1,3,3A3,3,0,0,1,29,6Zm6,52a3,3,0,1,1-3-3A3,3,0,0,1,35,58ZM32,47a14.943,14.943,0,0,1-10.859-4.682,11.024,11.024,0,0,1,8.089-9.345,1,1,0,0,0,.232-1.86A4.331,4.331,0,0,1,27,27a5,5,0,0,1,10,0,4.331,4.331,0,0,1-2.462,4.113,1,1,0,0,0,.232,1.86,11.024,11.024,0,0,1,8.089,9.345A14.943,14.943,0,0,1,32,47Zm12.479-6.691a13.083,13.083,0,0,0-7.313-8.643A6.317,6.317,0,0,0,39,27a7,7,0,0,0-14,0,6.317,6.317,0,0,0,1.834,4.666,13.083,13.083,0,0,0-7.313,8.643,15,15,0,1,1,24.958,0ZM57,36a4,4,0,1,1,4-4A4,4,0,0,1,57,36Z"/><path d="M13.293,49.293l-4,4a.97.97,0,0,0-.206.311A3.962,3.962,0,0,0,7,53a4,4,0,1,0,4,4,3.962,3.962,0,0,0-.6-2.087.97.97,0,0,0,.311-.206l4-4a1,1,0,0,0-1.414-1.414ZM7,59a2,2,0,1,1,2-2A2,2,0,0,1,7,59Z"/><path d="M17.293,45.293l-2,2a1,1,0,1,0,1.414,1.414l2-2a1,1,0,0,0-1.414-1.414Z"/><path d="M56,9a1,1,0,0,0,.707-.293l2-2a1,1,0,1,0-1.414-1.414l-2,2A1,1,0,0,0,56,9Z"/></g></svg>
