<?xml version="1.0"?>
<svg xmlns="http://www.w3.org/2000/svg" viewBox="0 0 64 64" width="512" height="512"><g id="Ai-7" data-name="Ai"><path d="M20,19a3,3,0,0,1-3-3,1,1,0,0,0-2,0,5.006,5.006,0,0,0,5,5,1,1,0,0,0,0-2Z"/><path d="M10,35a1,1,0,0,0,0,2,3,3,0,0,1,3,3,1,1,0,0,0,2,0A5.006,5.006,0,0,0,10,35Z"/><path d="M20,45a4,4,0,0,0-4,4,1,1,0,0,0,2,0,2,2,0,0,1,2-2,1,1,0,0,0,0-2Z"/><path d="M23,27a1,1,0,0,0,1,1c1.221,0,2,.592,2,1a1,1,0,0,0,2,0c0-1.683-1.757-3-4-3A1,1,0,0,0,23,27Z"/><path d="M27,37a2,2,0,0,1-2-2,1,1,0,0,0-2,0,4,4,0,0,0,4,4,1,1,0,0,0,0-2Z"/><path d="M26,50c-2.206,0-4,2.243-4,5a1,1,0,0,0,2,0c0-1.626.916-3,2-3a1,1,0,0,0,0-2Z"/><path d="M23,21h1a1,1,0,0,0,0-2H23a1,1,0,0,0,0,2Z"/><path d="M20,26H19a1,1,0,0,0,0,2h1a1,1,0,0,0,0-2Z"/><path d="M28,10a1,1,0,0,0,2,0V6a1,1,0,0,0-2,0Z"/><path d="M29,40a1,1,0,0,0-1,1v4a1,1,0,0,0,2,0V41A1,1,0,0,0,29,40Z"/><path d="M13,29a1,1,0,0,0,0-2,2,2,0,0,1-2-2,1,1,0,0,0-2,0A4,4,0,0,0,13,29Z"/><path d="M55,21a4,4,0,0,0-3.866,3.027A1.026,1.026,0,0,0,51,24H48a1,1,0,0,0-.6.2L41,29V21.414l2.908-2.908A3.977,3.977,0,1,0,43,16a3.9,3.9,0,0,0,.054.532l-3.761,3.761A1,1,0,0,0,39,21v7.586l-2,2V7a1,1,0,0,0-2,0V32.586L34.586,33H33V3.26a1,1,0,0,0-.422-.817A7.878,7.878,0,0,0,28,1a8,8,0,0,0-7.425,5.026C20.387,6.009,20.2,6,20,6a6.006,6.006,0,0,0-6,6,7.829,7.829,0,0,0-3.427.775A7.99,7.99,0,0,0,6.7,23.259,7.991,7.991,0,0,0,4.854,35.116a9.995,9.995,0,0,0,9.169,17.413A6.008,6.008,0,0,0,20,58c.2,0,.387-.009.575-.026A8,8,0,0,0,28,63a7.878,7.878,0,0,0,4.578-1.443A1,1,0,0,0,33,60.74V35h2V56a1,1,0,0,0,2,0V33.414l2-2V47a1,1,0,0,0,.293.707l3.761,3.761A3.9,3.9,0,0,0,43,52a4.05,4.05,0,1,0,.908-2.506L41,46.586V36.414l3.293,3.293A1,1,0,0,0,45,40h2a1.026,1.026,0,0,0,.134-.027,4,4,0,1,0,0-1.946A1.026,1.026,0,0,0,47,38H45.414L41,33.586V31.5L48.333,26H51a1.026,1.026,0,0,0,.134-.027A3.994,3.994,0,1,0,55,21Zm-8-7a2,2,0,1,1-2,2A2,2,0,0,1,47,14ZM31,60.2a5.9,5.9,0,0,1-3,.8,5.993,5.993,0,0,1-5.784-4.42,1,1,0,0,0-1.232-.7A3.723,3.723,0,0,1,20,56a4,4,0,0,1-4-4,3.609,3.609,0,0,1,.077-.777,1,1,0,0,0-1.433-1.1A8,8,0,0,1,6.91,36.13a1,1,0,0,0,.147-1.614,5.991,5.991,0,0,1,1.4-9.949,1,1,0,0,0,.428-1.435,5.984,5.984,0,0,1,2.546-8.552A5.847,5.847,0,0,1,14,14a4.888,4.888,0,0,1,.931.082,1,1,0,0,0,1.165-1.2A4.01,4.01,0,0,1,20,8a3.723,3.723,0,0,1,.984.124,1,1,0,0,0,1.232-.7A5.993,5.993,0,0,1,28,3a5.9,5.9,0,0,1,3,.8ZM47,50a2,2,0,1,1-2,2A2,2,0,0,1,47,50Zm4-13a2,2,0,1,1-2,2A2,2,0,0,1,51,37Zm4-10a2,2,0,1,1,2-2A2,2,0,0,1,55,27Z"/><path d="M53,17h2a1,1,0,0,0,0-2H53a1,1,0,0,0,0,2Z"/><path d="M54,51H53a1,1,0,0,0,0,2h1a1,1,0,0,0,0-2Z"/><path d="M40,13a1,1,0,0,0,1-1V6a1,1,0,0,0-2,0v6A1,1,0,0,0,40,13Z"/><path d="M40,52a1,1,0,0,0-1,1v4a1,1,0,0,0,2,0V53A1,1,0,0,0,40,52Z"/></g></svg>
