<?xml version="1.0" encoding="iso-8859-1"?>
<!-- Generator: Adobe Illustrator 19.0.0, SVG Export Plug-In . SVG Version: 6.00 Build 0)  -->
<svg version="1.1" id="Capa_1" xmlns="http://www.w3.org/2000/svg" xmlns:xlink="http://www.w3.org/1999/xlink" x="0px" y="0px"
	 viewBox="0 0 480 480" style="enable-background:new 0 0 480 480;" xml:space="preserve">
<path style="fill:#B5B5B5;" d="M72,296h336v96H72V296z"/>
<g>
	<path style="fill:#5B5B5B;" d="M96,320h96v16H96V320z"/>
	<path style="fill:#5B5B5B;" d="M96,352h96v16H96V352z"/>
	<path style="fill:#5B5B5B;" d="M208,320h16v16h-16V320z"/>
</g>
<path style="fill:#FFCB5A;" d="M240,352h16v16h-16V352z"/>
<g>
	<path style="fill:#5B5B5B;" d="M272,320h16v16h-16V320z"/>
	<circle style="fill:#5B5B5B;" cx="248" cy="328" r="8"/>
</g>
<circle style="fill:#03AA6F;" cx="280" cy="360" r="8"/>
<circle style="fill:#5B5B5B;" cx="376" cy="344" r="8"/>
<circle style="fill:#D95354;" cx="216" cy="360" r="8"/>
<path style="fill:#B5B5B5;" d="M72,24h336v96H72V24z"/>
<g>
	<path style="fill:#5B5B5B;" d="M96,48h96v16H96V48z"/>
	<path style="fill:#5B5B5B;" d="M96,80h96v16H96V80z"/>
	<path style="fill:#5B5B5B;" d="M208,48h16v16h-16V48z"/>
	<path style="fill:#5B5B5B;" d="M240,48h16v16h-16V48z"/>
	<path style="fill:#5B5B5B;" d="M272,48h16v16h-16V48z"/>
</g>
<path style="fill:#D95354;" d="M208,80h16v16h-16V80z"/>
<path style="fill:#FFCB5A;" d="M240,80h16v16h-16V80z"/>
<path style="fill:#03AA6F;" d="M272,80h16v16h-16V80z"/>
<g>
	<path style="fill:#5B5B5B;" d="M352,96c-13.255,0-24-10.745-24-24s10.745-24,24-24s24,10.745,24,24S365.255,96,352,96z M352,64
		c-4.418,0-8,3.582-8,8s3.582,8,8,8s8-3.582,8-8S356.418,64,352,64z"/>
	<path style="fill:#5B5B5B;" d="M328,368c-13.255,0-24-10.745-24-24s10.745-24,24-24s24,10.745,24,24h-16c0-4.418-3.582-8-8-8
		s-8,3.582-8,8s3.582,8,8,8V368z"/>
</g>
<path style="fill:#B5B5B5;" d="M72,160h336v96H72V160z"/>
<g>
	<path style="fill:#5B5B5B;" d="M96,184h96v16H96V184z"/>
	<path style="fill:#5B5B5B;" d="M96,216h96v16H96V216z"/>
	<path style="fill:#5B5B5B;" d="M208,184h16v16h-16V184z"/>
</g>
<path style="fill:#D95354;" d="M240,184h16v16h-16V184z"/>
<path style="fill:#5B5B5B;" d="M272,184h16v16h-16V184z"/>
<path style="fill:#03AA6F;" d="M208,216h16v16h-16V216z"/>
<path style="fill:#5B5B5B;" d="M240,216h16v16h-16V216z"/>
<path style="fill:#FFCB5A;" d="M272,216h16v16h-16V216z"/>
<g>
	<circle style="fill:#5B5B5B;" cx="312" cy="208" r="8"/>
	<circle style="fill:#5B5B5B;" cx="376" cy="208" r="8"/>
	<circle style="fill:#5B5B5B;" cx="344" cy="208" r="8"/>
	<path style="fill:#5B5B5B;" d="M40,336h32v16H40V336z"/>
	<path style="fill:#5B5B5B;" d="M24,368c-13.255,0-24-10.745-24-24s10.745-24,24-24s24,10.745,24,24S37.255,368,24,368z M24,336
		c-4.418,0-8,3.582-8,8s3.582,8,8,8s8-3.582,8-8S28.418,336,24,336z"/>
	<path style="fill:#5B5B5B;" d="M456,160c-13.255,0-24-10.745-24-24s10.745-24,24-24s24,10.745,24,24S469.255,160,456,160z M456,128
		c-4.418,0-8,3.582-8,8s3.582,8,8,8s8-3.582,8-8S460.418,128,456,128z"/>
	<path style="fill:#5B5B5B;" d="M32,328H16V208c0-4.418,3.582-8,8-8h48v16H32V328z"/>
	<path style="fill:#5B5B5B;" d="M456,216h-48v-16h40v-48h16v56C464,212.418,460.418,216,456,216z"/>
	<path style="fill:#5B5B5B;" d="M464,120h-16V80h-40V64h48c4.418,0,8,3.582,8,8V120z"/>
	<path style="fill:#5B5B5B;" d="M232,392h16v32h-16V392z"/>
</g>
<path style="fill:#454545;" d="M208,424h64v32h-64V424z"/>
<g>
	<path style="fill:#5B5B5B;" d="M272,432h208v16H272V432z"/>
	<path style="fill:#5B5B5B;" d="M0,432h208v16H0V432z"/>
</g>
<g>
</g>
<g>
</g>
<g>
</g>
<g>
</g>
<g>
</g>
<g>
</g>
<g>
</g>
<g>
</g>
<g>
</g>
<g>
</g>
<g>
</g>
<g>
</g>
<g>
</g>
<g>
</g>
<g>
</g>
</svg>
