<?xml version="1.0" encoding="iso-8859-1"?>
<!-- Generator: Adobe Illustrator 19.0.0, SVG Export Plug-In . SVG Version: 6.00 Build 0)  -->
<svg version="1.1" id="Capa_1" xmlns="http://www.w3.org/2000/svg" xmlns:xlink="http://www.w3.org/1999/xlink" x="0px" y="0px"
	 viewBox="0 0 472 472" style="enable-background:new 0 0 472 472;" xml:space="preserve">
<path style="fill:#C9C9C9;" d="M68,376h336v96H68V376z"/>
<g>
	<path style="fill:#5B5B5B;" d="M92,400h96v16H92V400z"/>
	<path style="fill:#5B5B5B;" d="M92,432h96v16H92V432z"/>
	<path style="fill:#5B5B5B;" d="M204,400h16v16h-16V400z"/>
</g>
<path style="fill:#D95354;" d="M236,400h16v16h-16V400z"/>
<g>
	<path style="fill:#07B671;" d="M268,400h16v16h-16V400z"/>
	<path style="fill:#07B671;" d="M204,432h16v16h-16V432z"/>
</g>
<path style="fill:#5B5B5B;" d="M236,432h16v16h-16V432z"/>
<path style="fill:#FFD884;" d="M268,432h16v16h-16V432z"/>
<circle style="fill:#5B5B5B;" cx="308" cy="424" r="8"/>
<circle style="fill:#D95354;" cx="372" cy="424" r="8"/>
<circle style="fill:#5B5B5B;" cx="340" cy="424" r="8"/>
<path style="fill:#D95354;" d="M140,136l80,80v48l32-16v-32l80-80v-32H140V136z"/>
<g>
	<path style="fill:#BA4748;" d="M172,128h88v16h-88V128z"/>
	<path style="fill:#BA4748;" d="M276,128h16v16h-16V128z"/>
</g>
<path style="fill:#48A6E8;" d="M236,32h16v48h-16V32z"/>
<path style="fill:#FFD884;" d="M268,16h16v64h-16V16z"/>
<g>
	<path style="fill:#07B671;" d="M300,0h16v80h-16V0z"/>
	<path style="fill:#07B671;" d="M180,8v32h-32C148,22.327,162.327,8,180,8z"/>
</g>
<path style="fill:#FFD884;" d="M180,40l22.64,22.64c-12.49,12.504-32.751,12.515-45.255,0.025C151.37,56.657,147.993,48.502,148,40
	H180z"/>
<path style="fill:#48A6E8;" d="M212,40c-0.015,8.485-3.379,16.621-9.36,22.64L180,40V8C197.673,8,212,22.327,212,40z"/>
<path style="fill:#5B5B5B;" d="M254.344,314.344L244,324.688V296h-16v28.688l-10.344-10.344l-11.312,11.312l24,24
	c3.124,3.123,8.188,3.123,11.312,0l24-24L254.344,314.344z"/>
<g>
</g>
<g>
</g>
<g>
</g>
<g>
</g>
<g>
</g>
<g>
</g>
<g>
</g>
<g>
</g>
<g>
</g>
<g>
</g>
<g>
</g>
<g>
</g>
<g>
</g>
<g>
</g>
<g>
</g>
</svg>
