<?xml version="1.0" encoding="UTF-8" standalone="no"?>
<!-- Created with Inkscape (http://www.inkscape.org/) -->
<svg xmlns:dc="http://purl.org/dc/elements/1.1/" xmlns:cc="http://creativecommons.org/ns#" xmlns:rdf="http://www.w3.org/1999/02/22-rdf-syntax-ns#" xmlns:svg="http://www.w3.org/2000/svg" xmlns="http://www.w3.org/2000/svg" xmlns:sodipodi="http://sodipodi.sourceforge.net/DTD/sodipodi-0.dtd" xmlns:inkscape="http://www.inkscape.org/namespaces/inkscape" width="177" height="32" viewBox="0 0 46.831248 8.466667" version="1.1" id="svg8" inkscape:version="0.92.3 (2405546, 2018-03-11)" sodipodi:docname="nemesis-solution-logo-white.svg">
  <defs id="defs2"/>
  <sodipodi:namedview id="base" pagecolor="#ffffff" bordercolor="#666666" borderopacity="1.0" inkscape:pageopacity="0.0" inkscape:pageshadow="2" inkscape:zoom="1.788" inkscape:cx="116.61915" inkscape:cy="-54.540451" inkscape:document-units="px" inkscape:current-layer="layer1" showgrid="false" units="px" showguides="false" inkscape:guide-bbox="true" inkscape:window-width="1280" inkscape:window-height="999" inkscape:window-x="0" inkscape:window-y="25" inkscape:window-maximized="1">
    <sodipodi:guide position="48.388562,4.8832496" orientation="1,0" id="guide133" inkscape:locked="false"/>
  </sodipodi:namedview>
  <metadata id="metadata5">
    <rdf:RDF>
      <cc:Work rdf:about="">
        <dc:format>image/svg+xml</dc:format>
        <dc:type rdf:resource="http://purl.org/dc/dcmitype/StillImage"/>
        <dc:title/>
      </cc:Work>
    </rdf:RDF>
  </metadata>
  <g inkscape:label="Livello 1" inkscape:groupmode="layer" id="layer1" transform="translate(0,-288.53332)">
    <g id="g44" transform="matrix(0.5,0,0,0.5,0.06614579,148.5)">
      <g transform="matrix(0.54511538,0,0,0.54511538,-0.17528527,135.28776)" id="text51" style="font-style:normal;font-variant:normal;font-weight:normal;font-stretch:normal;font-size:25.39999962px;line-height:1.25;font-family:Neuropol;-inkscape-font-specification:'Neuropol, Normal';font-variant-ligatures:normal;font-variant-caps:normal;font-variant-numeric:normal;font-feature-settings:normal;text-align:start;letter-spacing:0px;word-spacing:0px;writing-mode:lr-tb;text-anchor:start;fill:#ffffff;fill-opacity:1;stroke:none;stroke-width:0.26458332" aria-label="nemesis">
        <path inkscape:connector-curvature="0" id="path194" style="font-style:normal;font-variant:normal;font-weight:normal;font-stretch:normal;font-size:25.39999962px;font-family:Neuropol;-inkscape-font-specification:'Neuropol, Normal';font-variant-ligatures:normal;font-variant-caps:normal;font-variant-numeric:normal;font-feature-settings:normal;text-align:start;writing-mode:lr-tb;text-anchor:start;fill:#ffffff;stroke-width:0.26458332" d="m 16.692409,278.47914 q 0,0.97979 -0.979785,0.97979 -0.905371,0 -1.128613,-0.0744 -0.533301,-0.18604 -0.533301,-0.90538 v -7.56543 q 0,-0.83095 -1.339453,-1.0666 -0.483692,-0.0744 -1.95957,-0.0744 H 6.4852804 q -1.5378906,0 -2.021582,0.0744 -1.3766601,0.23565 -1.3766601,1.07901 v 7.55302 q 0,0.97979 -0.9673828,0.97979 -0.9053711,0 -1.1286133,-0.0744 -0.52089843,-0.18604 -0.52089843,-0.90538 v -7.52822 q 0,-3.38584 6.00273433,-3.38584 h 4.2788089 q 5.940722,0 5.940722,3.36104 z"/>
        <path inkscape:connector-curvature="0" id="path196" style="font-style:normal;font-variant:normal;font-weight:normal;font-stretch:normal;font-size:25.39999962px;font-family:Neuropol;-inkscape-font-specification:'Neuropol, Normal';font-variant-ligatures:normal;font-variant-caps:normal;font-variant-numeric:normal;font-feature-settings:normal;text-align:start;writing-mode:lr-tb;text-anchor:start;fill:#ffffff;stroke-width:0.26458332" d="m 34.713015,273.71664 q 0,1.07901 -0.731739,1.07901 H 20.971218 q -0.136426,2.48047 4.005957,2.48047 0.260449,0 0.706934,0 0.458886,-0.0124 0.632519,-0.0124 0.967383,0 0.967383,1.21543 0,0.97979 -0.967383,0.97979 -2.54248,0 -3.410644,-0.0868 -2.170411,-0.21084 -3.187403,-1.01699 -1.451074,-1.14101 -1.451074,-2.6541 v -4.37803 q 0,-2.05879 2.257227,-3.03857 1.649511,-0.73174 4.018359,-0.73174 h 4.886523 q 1.947168,0 3.398242,0.68213 1.885157,0.88056 1.885157,2.61689 z m -2.554883,-1.19062 v -1.46348 q 0,-1.33945 -5.320606,-1.33945 -0.657324,0 -1.37666,0.0248 -0.706933,0.0248 -0.620117,0.0248 -3.956347,0 -3.956347,1.38906 v 1.36426 z"/>
        <path inkscape:connector-curvature="0" id="path198" style="font-style:normal;font-variant:normal;font-weight:normal;font-stretch:normal;font-size:25.39999962px;font-family:Neuropol;-inkscape-font-specification:'Neuropol, Normal';font-variant-ligatures:normal;font-variant-caps:normal;font-variant-numeric:normal;font-feature-settings:normal;text-align:start;writing-mode:lr-tb;text-anchor:start;fill:#ffffff;stroke-width:0.26458332" d="m 58.835572,278.47914 q 0,0.97979 -0.967383,0.97979 -0.917774,0 -1.128613,-0.0744 -0.533301,-0.18604 -0.533301,-0.90538 v -7.32978 q 0,-1.41387 -3.336231,-1.41387 -0.322461,0 -0.781347,0.0248 -0.446485,0.0124 -0.545703,0.0124 -2.616895,0 -2.616895,1.71152 v 6.99492 q 0,0.71934 -0.533301,0.90538 -0.223242,0.0744 -1.128613,0.0744 -0.979785,0 -0.979785,-0.97979 v -7.01972 q 0,-1.0542 -0.744141,-1.42627 -0.520898,-0.26045 -1.711523,-0.26045 -0.111621,0 -0.63252,-0.0124 -0.508496,-0.0248 -0.868164,-0.0248 -3.373437,0 -3.373437,1.43867 v 7.30498 q 0,0.71934 -0.520899,0.90538 -0.223242,0.0744 -1.128613,0.0744 -0.967383,0 -0.967383,-0.97979 v -7.03212 q 0,-3.88194 5.705078,-3.88194 2.38125,0 2.914551,0.062 1.413867,0.17364 2.716113,0.95498 1.21543,-0.74414 2.740918,-0.93017 0.706934,-0.0868 2.926953,-0.0868 5.494239,0 5.494239,3.88194 z"/>
        <path inkscape:connector-curvature="0" id="path200" style="font-style:normal;font-variant:normal;font-weight:normal;font-stretch:normal;font-size:25.39999962px;font-family:Neuropol;-inkscape-font-specification:'Neuropol, Normal';font-variant-ligatures:normal;font-variant-caps:normal;font-variant-numeric:normal;font-feature-settings:normal;text-align:start;writing-mode:lr-tb;text-anchor:start;fill:#ffffff;stroke-width:0.26458332" d="m 76.831373,273.71664 q 0,1.07901 -0.731738,1.07901 H 63.089577 q -0.136426,2.48047 4.005957,2.48047 0.260449,0 0.706933,0 0.458887,-0.0124 0.63252,-0.0124 0.967382,0 0.967382,1.21543 0,0.97979 -0.967382,0.97979 -2.542481,0 -3.410645,-0.0868 -2.17041,-0.21084 -3.187402,-1.01699 -1.451074,-1.14101 -1.451074,-2.6541 v -4.37803 q 0,-2.05879 2.257226,-3.03857 1.649512,-0.73174 4.01836,-0.73174 h 4.886523 q 1.947168,0 3.398242,0.68213 1.885156,0.88056 1.885156,2.61689 z m -2.554883,-1.19062 v -1.46348 q 0,-1.33945 -5.320605,-1.33945 -0.657324,0 -1.37666,0.0248 -0.706934,0.0248 -0.620117,0.0248 -3.956348,0 -3.956348,1.38906 v 1.36426 z"/>
        <path inkscape:connector-curvature="0" id="path202" style="font-style:normal;font-variant:normal;font-weight:normal;font-stretch:normal;font-size:25.39999962px;font-family:Neuropol;-inkscape-font-specification:'Neuropol, Normal';font-variant-ligatures:normal;font-variant-caps:normal;font-variant-numeric:normal;font-feature-settings:normal;text-align:start;writing-mode:lr-tb;text-anchor:start;fill:#ffffff;stroke-width:0.26458332" d="m 93.450516,276.06069 q 0,3.39824 -5.184179,3.39824 h -8.855274 q -0.967383,0 -0.967383,-0.97979 0,-1.21543 0.967383,-1.21543 h 8.867676 q 2.455664,0 2.455664,-1.20302 v -0.44649 q 0,-1.079 -2.232422,-1.079 h -4.254004 q -5.866308,0 -5.866308,-3.27422 v -0.64492 q 0,-2.18281 2.988965,-2.80293 1.203027,-0.24805 4.588867,-0.24805 0.979785,0 0.979785,0.97979 v 0.26045 q 0,0.96738 -0.979785,0.96738 h -1.885157 q -1.451074,0 -1.761132,0.0372 -1.314649,0.14882 -1.314649,0.80615 v 0.62012 q 0,0.76894 1.351856,0.97978 0.508496,0.0868 1.909961,0.0868 h 4.34082 q 4.849316,0 4.849316,3.2122 z"/>
        <path inkscape:connector-curvature="0" id="path204" style="font-style:normal;font-variant:normal;font-weight:normal;font-stretch:normal;font-size:25.39999962px;font-family:Neuropol;-inkscape-font-specification:'Neuropol, Normal';font-variant-ligatures:normal;font-variant-caps:normal;font-variant-numeric:normal;font-feature-settings:normal;text-align:start;writing-mode:lr-tb;text-anchor:start;fill:#ffffff;stroke-width:0.26458332" d="m 98.1262,266.93256 q 0,0.63252 -0.533301,1.00459 -0.471289,0.33487 -1.16582,0.33487 -0.694531,0 -1.16582,-0.33487 -0.533301,-0.37207 -0.533301,-1.00459 0,-0.63252 0.520898,-1.00459 0.483692,-0.33486 1.178223,-0.33486 0.682129,0 1.16582,0.33486 0.533301,0.37207 0.533301,1.00459 z m -0.359668,11.54658 q 0,0.97979 -0.979785,0.97979 -0.892969,0 -1.116211,-0.0868 -0.508496,-0.18603 -0.508496,-0.89297 v -8.99169 q 0,-0.96739 0.979785,-0.96739 0.880566,0 1.116211,0.0744 0.508496,0.18603 0.508496,0.89297 z"/>
        <path inkscape:connector-curvature="0" id="path206" style="font-style:normal;font-variant:normal;font-weight:normal;font-stretch:normal;font-size:25.39999962px;font-family:Neuropol;-inkscape-font-specification:'Neuropol, Normal';font-variant-ligatures:normal;font-variant-caps:normal;font-variant-numeric:normal;font-feature-settings:normal;text-align:start;writing-mode:lr-tb;text-anchor:start;fill:#ffffff;stroke-width:0.26458332" d="m 114.73293,276.06069 q 0,3.39824 -5.18418,3.39824 h -8.85527 q -0.967382,0 -0.967382,-0.97979 0,-1.21543 0.967382,-1.21543 h 8.86768 q 2.45566,0 2.45566,-1.20302 v -0.44649 q 0,-1.079 -2.23242,-1.079 h -4.25401 q -5.866304,0 -5.866304,-3.27422 v -0.64492 q 0,-2.18281 2.988964,-2.80293 1.20303,-0.24805 4.58887,-0.24805 0.97978,0 0.97978,0.97979 v 0.26045 q 0,0.96738 -0.97978,0.96738 h -1.88516 q -1.45107,0 -1.76113,0.0372 -1.31465,0.14882 -1.31465,0.80615 v 0.62012 q 0,0.76894 1.35186,0.97978 0.50849,0.0868 1.90996,0.0868 h 4.34082 q 4.84931,0 4.84931,3.2122 z"/>
      </g>
      <g transform="matrix(0.54511538,0,0,0.54511538,-0.17528527,135.28776)" id="text51-6" style="font-style:normal;font-variant:normal;font-weight:normal;font-stretch:normal;font-size:25.39999962px;line-height:1.25;font-family:Neuropol;-inkscape-font-specification:'Neuropol, Normal';font-variant-ligatures:normal;font-variant-caps:normal;font-variant-numeric:normal;font-feature-settings:normal;text-align:start;letter-spacing:0px;word-spacing:0px;writing-mode:lr-tb;text-anchor:start;fill:#ff0000;fill-opacity:1;stroke:none;stroke-width:0.26458332" aria-label="solutions">
        <path inkscape:connector-curvature="0" id="path175" style="font-style:normal;font-variant:normal;font-weight:normal;font-stretch:normal;font-size:25.39999962px;font-family:Neuropol;-inkscape-font-specification:'Neuropol, Normal';font-variant-ligatures:normal;font-variant-caps:normal;font-variant-numeric:normal;font-feature-settings:normal;text-align:start;writing-mode:lr-tb;text-anchor:start;fill:#ff0000;stroke-width:0.26458332" d="m 63.906283,293.22142 q 0,3.39825 -5.184179,3.39825 H 49.86683 q -0.967382,0 -0.967382,-0.97979 0,-1.21543 0.967382,-1.21543 h 8.867676 q 2.455664,0 2.455664,-1.20303 v -0.44648 q 0,-1.079 -2.232422,-1.079 h -4.254004 q -5.866308,0 -5.866308,-3.27422 v -0.64493 q 0,-2.18281 2.988965,-2.80293 1.203027,-0.24804 4.588867,-0.24804 0.979785,0 0.979785,0.97978 v 0.26045 q 0,0.96739 -0.979785,0.96739 h -1.885156 q -1.451075,0 -1.761133,0.0372 -1.314649,0.14883 -1.314649,0.80615 v 0.62012 q 0,0.76895 1.351856,0.97979 0.508496,0.0868 1.909961,0.0868 h 4.34082 q 4.849316,0 4.849316,3.21221 z"/>
        <path inkscape:connector-curvature="0" id="path177" style="font-style:normal;font-variant:normal;font-weight:normal;font-stretch:normal;font-size:25.39999962px;font-family:Neuropol;-inkscape-font-specification:'Neuropol, Normal';font-variant-ligatures:normal;font-variant-caps:normal;font-variant-numeric:normal;font-feature-settings:normal;text-align:start;writing-mode:lr-tb;text-anchor:start;fill:#ff0000;stroke-width:0.26458332" d="m 81.753256,292.92377 q 0,2.02158 -2.00918,2.97656 -1.525488,0.71934 -3.795117,0.71934 h -4.353222 q -2.257227,0 -3.881934,-0.73174 -2.182812,-0.96739 -2.182812,-2.96416 v -4.37803 q 0,-1.97197 2.17041,-3.01377 1.699121,-0.80615 3.881933,-0.80615 h 4.365625 q 5.804297,0 5.804297,3.79512 z m -2.654102,0 v -4.57647 q 0,-1.41386 -3.224609,-1.41386 h -4.254004 q -1.178222,0 -2.133203,0.29765 -1.339453,0.43408 -1.339453,1.31465 v 4.37803 q 0,0.85576 1.37666,1.24023 0.917774,0.26045 2.108399,0.26045 h 4.254003 q 1.041797,0 1.947168,-0.29766 1.265039,-0.40927 1.265039,-1.20302 z"/>
        <path inkscape:connector-curvature="0" id="path179" style="font-style:normal;font-variant:normal;font-weight:normal;font-stretch:normal;font-size:25.39999962px;font-family:Neuropol;-inkscape-font-specification:'Neuropol, Normal';font-variant-ligatures:normal;font-variant-caps:normal;font-variant-numeric:normal;font-feature-settings:normal;text-align:start;writing-mode:lr-tb;text-anchor:start;fill:#ff0000;stroke-width:0.26458332" d="m 86.00726,295.63988 q 0,0.97979 -0.967383,0.97979 -0.917773,0 -1.128613,-0.0868 -0.520898,-0.17363 -0.520898,-0.89297 v -13.15889 q 0,-0.96738 0.967382,-0.96738 0.917774,0 1.128614,0.0744 0.520898,0.17363 0.520898,0.89296 z"/>
        <path inkscape:connector-curvature="0" id="path181" style="font-style:normal;font-variant:normal;font-weight:normal;font-stretch:normal;font-size:25.39999962px;font-family:Neuropol;-inkscape-font-specification:'Neuropol, Normal';font-variant-ligatures:normal;font-variant-caps:normal;font-variant-numeric:normal;font-feature-settings:normal;text-align:start;writing-mode:lr-tb;text-anchor:start;fill:#ff0000;stroke-width:0.26458332" d="m 104.2263,293.0726 q 0,3.58427 -7.590231,3.58427 -0.607715,0 -1.513086,-0.0248 -0.905371,-0.0124 -1.141016,-0.0124 -6.374805,0 -6.374805,-3.54707 v -7.367 q 0,-0.97978 0.967383,-0.97978 0.905371,0 1.128614,0.0744 0.520898,0.17363 0.520898,0.90537 v 7.367 q 0,1.35185 3.75791,1.35185 h 3.906738 q 3.683495,0 3.683495,-1.31465 v -7.4042 q 0,-0.73174 0.5333,-0.90537 0.21084,-0.0744 1.14102,-0.0744 0.97978,0 0.97978,0.97978 z"/>
        <path inkscape:connector-curvature="0" id="path183" style="font-style:normal;font-variant:normal;font-weight:normal;font-stretch:normal;font-size:25.39999962px;font-family:Neuropol;-inkscape-font-specification:'Neuropol, Normal';font-variant-ligatures:normal;font-variant-caps:normal;font-variant-numeric:normal;font-feature-settings:normal;text-align:start;writing-mode:lr-tb;text-anchor:start;fill:#ff0000;stroke-width:0.26458332" d="m 114.53265,286.04047 q 0,0.96738 -0.97979,0.96738 h -4.14238 v 8.63203 q 0,0.97979 -0.96738,0.97979 -0.90537,0 -1.12861,-0.0868 -0.5209,-0.17363 -0.5209,-0.89297 v -8.63203 h -0.91778 q -1.01699,0 -1.01699,-1.09141 0,-1.0914 1.01699,-1.0914 h 0.91778 v -2.34405 q 0,-0.96738 0.96738,-0.96738 0.91777,0 1.12861,0.0744 0.5209,0.17363 0.5209,0.89296 v 2.34405 h 4.14238 q 0.97979,0 0.97979,1.21543 z"/>
        <path inkscape:connector-curvature="0" id="path185" style="font-style:normal;font-variant:normal;font-weight:normal;font-stretch:normal;font-size:25.39999962px;font-family:Neuropol;-inkscape-font-specification:'Neuropol, Normal';font-variant-ligatures:normal;font-variant-caps:normal;font-variant-numeric:normal;font-feature-settings:normal;text-align:start;writing-mode:lr-tb;text-anchor:start;fill:#ff0000;stroke-width:0.26458332" d="m 119.18353,284.0933 q 0,0.63252 -0.5333,1.00459 -0.47129,0.33486 -1.16582,0.33486 -0.69453,0 -1.16582,-0.33486 -0.5333,-0.37207 -0.5333,-1.00459 0,-0.63252 0.5209,-1.00459 0.48369,-0.33486 1.17822,-0.33486 0.68213,0 1.16582,0.33486 0.5333,0.37207 0.5333,1.00459 z m -0.35967,11.54658 q 0,0.97979 -0.97978,0.97979 -0.89297,0 -1.11621,-0.0868 -0.5085,-0.18604 -0.5085,-0.89297 v -8.9917 q 0,-0.96738 0.97978,-0.96738 0.88057,0 1.11622,0.0744 0.50849,0.18604 0.50849,0.89297 z"/>
        <path inkscape:connector-curvature="0" id="path187" style="font-style:normal;font-variant:normal;font-weight:normal;font-stretch:normal;font-size:25.39999962px;font-family:Neuropol;-inkscape-font-specification:'Neuropol, Normal';font-variant-ligatures:normal;font-variant-caps:normal;font-variant-numeric:normal;font-feature-settings:normal;text-align:start;writing-mode:lr-tb;text-anchor:start;fill:#ff0000;stroke-width:0.26458332" d="m 137.0181,292.92377 q 0,2.02158 -2.00918,2.97656 -1.52549,0.71934 -3.79511,0.71934 h -4.35323 q -2.25722,0 -3.88193,-0.73174 -2.18281,-0.96739 -2.18281,-2.96416 v -4.37803 q 0,-1.97197 2.17041,-3.01377 1.69912,-0.80615 3.88193,-0.80615 h 4.36563 q 5.80429,0 5.80429,3.79512 z m -2.6541,0 v -4.57647 q 0,-1.41386 -3.22461,-1.41386 h -4.254 q -1.17822,0 -2.13321,0.29765 -1.33945,0.43408 -1.33945,1.31465 v 4.37803 q 0,0.85576 1.37666,1.24023 0.91778,0.26045 2.1084,0.26045 h 4.254 q 1.0418,0 1.94717,-0.29766 1.26504,-0.40927 1.26504,-1.20302 z"/>
        <path inkscape:connector-curvature="0" id="path189" style="font-style:normal;font-variant:normal;font-weight:normal;font-stretch:normal;font-size:25.39999962px;font-family:Neuropol;-inkscape-font-specification:'Neuropol, Normal';font-variant-ligatures:normal;font-variant-caps:normal;font-variant-numeric:normal;font-feature-settings:normal;text-align:start;writing-mode:lr-tb;text-anchor:start;fill:#ff0000;stroke-width:0.26458332" d="m 154.87748,295.63988 q 0,0.97979 -0.97979,0.97979 -0.90537,0 -1.12861,-0.0744 -0.5333,-0.18603 -0.5333,-0.90537 v -7.56543 q 0,-0.83096 -1.33945,-1.0666 -0.4837,-0.0744 -1.95957,-0.0744 h -4.26641 q -1.53789,0 -2.02158,0.0744 -1.37666,0.23564 -1.37666,1.079 v 7.55303 q 0,0.97979 -0.96739,0.97979 -0.90537,0 -1.12861,-0.0744 -0.5209,-0.18603 -0.5209,-0.90537 v -7.52822 q 0,-3.38584 6.00274,-3.38584 h 4.27881 q 5.94072,0 5.94072,3.36103 z"/>
        <path inkscape:connector-curvature="0" id="path191" style="font-style:normal;font-variant:normal;font-weight:normal;font-stretch:normal;font-size:25.39999962px;font-family:Neuropol;-inkscape-font-specification:'Neuropol, Normal';font-variant-ligatures:normal;font-variant-caps:normal;font-variant-numeric:normal;font-feature-settings:normal;text-align:start;writing-mode:lr-tb;text-anchor:start;fill:#ff0000;stroke-width:0.26458332" d="m 171.50902,293.22142 q 0,3.39825 -5.18418,3.39825 h -8.85527 q -0.96738,0 -0.96738,-0.97979 0,-1.21543 0.96738,-1.21543 h 8.86767 q 2.45567,0 2.45567,-1.20303 v -0.44648 q 0,-1.079 -2.23242,-1.079 h -4.25401 q -5.86631,0 -5.86631,-3.27422 v -0.64493 q 0,-2.18281 2.98897,-2.80293 1.20303,-0.24804 4.58887,-0.24804 0.97978,0 0.97978,0.97978 v 0.26045 q 0,0.96739 -0.97978,0.96739 h -1.88516 q -1.45108,0 -1.76113,0.0372 -1.31465,0.14883 -1.31465,0.80615 v 0.62012 q 0,0.76895 1.35185,0.97979 0.5085,0.0868 1.90996,0.0868 h 4.34082 q 4.84932,0 4.84932,3.21221 z"/>
      </g>
    </g>
  </g>
</svg>